<svg width="139" height="52" viewBox="0 0 139 52" fill="none" xmlns="http://www.w3.org/2000/svg">
<path d="M75.71 26.43C75.71 25.57 75.46 24.9 74.96 24.42C74.48 23.94 73.84 23.7 73.04 23.7C72.3 23.7 71.65 23.89 71.09 24.27C70.53 24.65 70.12 25.28 69.86 26.16L66.35 25.08C66.69 23.76 67.43 22.7 68.57 21.9C69.73 21.1 71.28 20.7 73.22 20.7C74.54 20.7 75.69 20.91 76.67 21.33C77.65 21.73 78.41 22.34 78.95 23.16C79.51 23.98 79.79 25.01 79.79 26.25V32.34C79.79 33.1 80.15 33.48 80.87 33.48C81.21 33.48 81.53 33.43 81.83 33.33L81.59 35.88C81.07 36.14 80.42 36.27 79.64 36.27C78.94 36.27 78.31 36.15 77.75 35.91C77.19 35.67 76.75 35.31 76.43 34.83C76.11 34.33 75.95 33.71 75.95 32.97V32.85L76.67 32.73C76.55 33.49 76.22 34.14 75.68 34.68C75.14 35.2 74.48 35.6 73.7 35.88C72.94 36.16 72.15 36.3 71.33 36.3C70.31 36.3 69.43 36.15 68.69 35.85C67.95 35.53 67.38 35.07 66.98 34.47C66.58 33.87 66.38 33.13 66.38 32.25C66.38 31.13 66.74 30.22 67.46 29.52C68.18 28.8 69.21 28.31 70.55 28.05L76.19 26.91L76.16 29.46L72.56 30.18C71.88 30.32 71.36 30.51 71 30.75C70.66 30.97 70.49 31.34 70.49 31.86C70.49 32.36 70.67 32.74 71.03 33C71.41 33.26 71.86 33.39 72.38 33.39C72.8 33.39 73.21 33.34 73.61 33.24C74.01 33.14 74.37 32.98 74.69 32.76C75.01 32.54 75.26 32.24 75.44 31.86C75.62 31.48 75.71 31.02 75.71 30.48V26.43ZM98.3338 17.43L98.8138 20.37C98.7338 20.37 98.6438 20.37 98.5438 20.37C98.4638 20.35 98.3738 20.34 98.2738 20.34C97.3538 20.34 96.6638 20.55 96.2038 20.97C95.7438 21.37 95.5138 21.93 95.5138 22.65L93.8338 21.96C93.8338 21.16 93.9938 20.42 94.3138 19.74C94.6338 19.04 95.1038 18.48 95.7238 18.06C96.3638 17.64 97.1238 17.43 98.0038 17.43C98.0438 17.43 98.0938 17.43 98.1538 17.43C98.2138 17.43 98.2738 17.43 98.3338 17.43ZM93.4138 33.18C95.0338 33.18 96.2838 33.53 97.1638 34.23C98.0438 34.93 98.4838 35.91 98.4838 37.17C98.4838 38.31 98.1538 39.27 97.4937 40.05C96.8338 40.85 95.9038 41.45 94.7038 41.85C93.5238 42.25 92.1538 42.45 90.5938 42.45C88.0138 42.45 86.1238 42.09 84.9238 41.37C83.7438 40.65 83.1538 39.71 83.1538 38.55C83.1538 37.73 83.4638 37.04 84.0838 36.48C84.7238 35.92 85.7738 35.61 87.2338 35.55L87.0838 36.03C86.0438 35.85 85.2438 35.51 84.6838 35.01C84.1438 34.49 83.8738 33.78 83.8738 32.88C83.8738 31.96 84.2238 31.21 84.9238 30.63C85.6438 30.03 86.6138 29.68 87.8338 29.58L89.6338 30.42H89.2138C88.3538 30.48 87.7438 30.66 87.3838 30.96C87.0438 31.24 86.8738 31.56 86.8738 31.92C86.8738 32.34 87.0338 32.66 87.3538 32.88C87.6938 33.08 88.1738 33.18 88.7938 33.18H93.4138ZM90.6238 39.63C91.6638 39.63 92.5138 39.54 93.1738 39.36C93.8538 39.18 94.3538 38.95 94.6738 38.67C95.0138 38.39 95.1838 38.08 95.1838 37.74C95.1838 37.36 95.0338 37.05 94.7338 36.81C94.4338 36.59 93.8938 36.48 93.1138 36.48H88.0438C87.5638 36.48 87.1638 36.6 86.8438 36.84C86.5438 37.08 86.3938 37.41 86.3938 37.83C86.3938 38.39 86.7638 38.83 87.5038 39.15C88.2638 39.47 89.3038 39.63 90.6238 39.63ZM90.6538 20.7C92.0538 20.7 93.2638 20.91 94.2838 21.33C95.3238 21.73 96.1138 22.31 96.6538 23.07C97.2138 23.83 97.4937 24.74 97.4937 25.8C97.4937 26.84 97.2138 27.74 96.6538 28.5C96.1138 29.26 95.3238 29.85 94.2838 30.27C93.2638 30.67 92.0538 30.87 90.6538 30.87C88.4338 30.87 86.7338 30.42 85.5538 29.52C84.3938 28.6 83.8138 27.36 83.8138 25.8C83.8138 24.74 84.0838 23.83 84.6238 23.07C85.1838 22.31 85.9738 21.73 86.9938 21.33C88.0138 20.91 89.2338 20.7 90.6538 20.7ZM90.6538 23.28C89.8538 23.28 89.1938 23.5 88.6738 23.94C88.1538 24.38 87.8938 24.99 87.8938 25.77C87.8938 26.55 88.1538 27.17 88.6738 27.63C89.1938 28.07 89.8538 28.29 90.6538 28.29C91.4538 28.29 92.1038 28.07 92.6038 27.63C93.1238 27.17 93.3838 26.55 93.3838 25.77C93.3838 24.99 93.1238 24.38 92.6038 23.94C92.1038 23.5 91.4538 23.28 90.6538 23.28ZM107.809 20.7C109.329 20.7 110.659 21.01 111.799 21.63C112.959 22.25 113.859 23.14 114.499 24.3C115.159 25.46 115.489 26.86 115.489 28.5C115.489 30.12 115.159 31.52 114.499 32.7C113.859 33.86 112.959 34.75 111.799 35.37C110.659 35.99 109.329 36.3 107.809 36.3C106.309 36.3 104.979 35.99 103.819 35.37C102.659 34.75 101.749 33.86 101.089 32.7C100.449 31.52 100.129 30.12 100.129 28.5C100.129 26.86 100.449 25.46 101.089 24.3C101.749 23.14 102.659 22.25 103.819 21.63C104.979 21.01 106.309 20.7 107.809 20.7ZM107.809 23.76C107.049 23.76 106.399 23.94 105.859 24.3C105.339 24.64 104.939 25.16 104.659 25.86C104.379 26.56 104.239 27.44 104.239 28.5C104.239 29.56 104.379 30.44 104.659 31.14C104.939 31.84 105.339 32.37 105.859 32.73C106.399 33.07 107.049 33.24 107.809 33.24C108.549 33.24 109.179 33.07 109.699 32.73C110.239 32.37 110.649 31.84 110.929 31.14C111.209 30.44 111.349 29.56 111.349 28.5C111.349 27.44 111.209 26.56 110.929 25.86C110.649 25.16 110.239 24.64 109.699 24.3C109.179 23.94 108.549 23.76 107.809 23.76ZM118.928 36V21H122.618L122.858 25.5L122.348 25.02C122.588 24.04 122.968 23.23 123.488 22.59C124.008 21.95 124.638 21.48 125.378 21.18C126.138 20.86 126.968 20.7 127.868 20.7C128.908 20.7 129.828 20.9 130.628 21.3C131.448 21.7 132.088 22.31 132.548 23.13C133.028 23.93 133.268 24.94 133.268 26.16V36H129.158V27.33C129.158 26.05 128.908 25.17 128.408 24.69C127.908 24.19 127.258 23.94 126.458 23.94C125.898 23.94 125.348 24.08 124.808 24.36C124.288 24.62 123.858 25.05 123.518 25.65C123.198 26.25 123.038 27.05 123.038 28.05V36H118.928Z" fill="#101828"/>
<circle cx="25.8789" cy="25.8789" r="25.8789" fill="#101828"/>
<path d="M32.7695 18.9381C32.7695 15.3934 29.8693 12.4932 26.3246 12.4932C22.7799 12.4932 19.8796 15.3934 19.8796 18.9381C19.8796 22.4828 22.7799 25.3831 26.3246 25.3831C29.8693 25.3831 32.7695 22.4828 32.7695 18.9381ZM21.3669 18.9381L24.4655 17.1285C24.9613 16.8311 25.581 17.2029 25.581 17.773V18.9381C25.581 19.3595 25.9032 19.6817 26.3246 19.6817H31.208C30.8609 22.0614 28.8035 23.8957 26.3246 23.8957C23.5979 23.8957 21.367 21.6648 21.367 18.9381L21.3669 18.9381Z" fill="white"/>
<path d="M38.8677 32.0015C38.6694 31.6545 38.1984 31.5305 37.8513 31.7288C37.5042 31.9271 37.3803 32.3981 37.5786 32.7452L40.2558 37.3558C40.3797 37.5541 40.4541 37.7772 40.4541 38.0251C40.4541 38.7191 39.9087 39.2645 39.2147 39.2645H35.5708L36.364 29.7707C36.4136 29.151 36.2153 28.5313 35.7939 28.0851C35.3726 27.6389 34.7528 27.3662 34.1332 27.3662H18.3185C17.6988 27.3662 17.0791 27.6389 16.6577 28.1099C16.2364 28.5808 16.038 29.2005 16.0876 29.845L17.0792 39.2895H13.4353C12.7413 39.2895 12.1959 38.7442 12.1959 38.0501C12.1959 37.827 12.2703 37.6039 12.3694 37.4056C12.3942 37.3808 15.0714 32.7702 15.0714 32.7702C15.2697 32.4232 15.1457 31.9522 14.7987 31.7539C14.4517 31.5556 13.9807 31.6795 13.7824 32.0265L11.1548 36.538C10.8573 36.9842 10.7086 37.5047 10.7086 38.0253C10.7086 39.5374 11.9233 40.752 13.4353 40.752H17.8972H17.9716H24.8131H24.8379H39.2151C40.7272 40.752 41.9418 39.5374 41.9418 38.0253C41.9418 37.5048 41.7931 36.9842 41.4956 36.538L38.8681 32.0018L38.8677 32.0015ZM26.0769 35.2984C25.2589 35.2984 24.5896 34.6291 24.5896 33.8111C24.5896 32.993 25.2589 32.3238 26.0769 32.3238C26.895 32.3238 27.5642 32.993 27.5642 33.8111C27.5642 34.6291 26.895 35.2984 26.0769 35.2984Z" fill="white"/>
</svg>
